<svg width="79" height="124" viewBox="0 0 79 124" fill="none" xmlns="http://www.w3.org/2000/svg">
<path d="M64.93 61.2199C59.08 62.8399 53.52 65.3299 48.1 68.0299C48.22 67.5399 48.34 67.0499 48.46 66.5499C49.25 63.3099 50.03 60.0699 50.79 56.8299C58.83 49.7699 91.73 5.8499 72.56 0.4499C64.57 -0.4101 59.75 9.4599 56.39 15.3599C50.1 27.2099 47.6 40.4699 44.69 53.4399C37.5 60.4599 29.38 66.9799 19.85 70.4599C3.15 75.8399 5.07 63.1399 14.58 54.7299C19.57 50.4599 26.3 48.6099 32.79 49.0699C33.84 48.9799 34.9 49.2999 35.95 49.6299C37.45 50.0999 38.91 50.5599 40.28 49.7899C42.74 48.4499 42.31 44.5799 39.72 43.7299C25.58 38.8599 8.72 46.2699 2.4 59.7899C-2.57 69.2899 2.82 78.9399 13.8 78.4499C24.47 77.7999 33.82 71.4299 41.96 64.9699C41.45 67.0599 40.92 69.1499 40.39 71.2399C40.28 71.6599 40.17 72.0899 40.06 72.5099C30.49 78.3299 21.52 85.4999 15.07 94.7599C11.12 100.45 7.37 107.06 7.8 114.21C8.06 118.13 10.18 122.43 14.28 123.39C15.11 123.54 15.91 123.61 16.7 123.61C33.84 123.61 42.11 89.8799 45.85 76.8699C52.48 73.1599 59.39 69.7799 66.72 67.6999C70.93 66.4799 69.17 60.1099 64.94 61.2299L64.93 61.2199ZM55.05 38.2599C57.15 29.9599 63.58 10.8499 71.42 7.0799C72.83 17.3099 60.08 35.1299 53.87 43.1899C54.24 41.5399 54.63 39.8999 55.05 38.2599ZM17.02 116.94C14.56 117.34 14.41 114.1 14.47 112.36C14.85 107.78 17.23 103.66 19.67 99.8699C24.32 92.8499 30.56 87.0599 37.41 82.2199C34.48 91.4299 27.71 115.35 17.02 116.93V116.94Z" fill="white"/>
</svg>
